<?xml version="1.0" standalone="no"?>
<!DOCTYPE svg PUBLIC "-//W3C//DTD SVG 20010904//EN"
 "http://www.w3.org/TR/2001/REC-SVG-20010904/DTD/svg10.dtd">
<svg version="1.0" xmlns="http://www.w3.org/2000/svg"
 width="600.000000pt" height="600.000000pt" viewBox="0 0 600.000000 600.000000"
 preserveAspectRatio="xMidYMid meet">
<metadata>
Created by potrace 1.11, written by Peter Selinger 2001-2013
</metadata>
<g transform="translate(0.000000,600.000000) scale(0.100000,-0.100000)"
fill="#000000" stroke="none">
<path d="M1595 3949 c-236 -24 -411 -184 -459 -421 -22 -105 -22 -381 0 -486
23 -111 67 -195 144 -273 107 -107 216 -149 385 -149 170 0 280 43 385 149
129 130 160 231 160 516 0 262 -22 350 -120 474 -111 141 -294 211 -495 190z
m180 -228 c53 -24 100 -73 133 -141 l27 -55 0 -240 c0 -226 -1 -243 -22 -287
-54 -118 -128 -168 -248 -168 -97 0 -163 32 -210 104 -53 80 -65 143 -65 351
0 208 12 271 65 351 47 72 113 104 209 104 47 0 85 -7 111 -19z"/>
<path d="M2854 3948 c-207 -21 -362 -160 -421 -378 -25 -94 -26 -476 0 -568
27 -100 67 -172 132 -237 106 -106 209 -145 380 -145 269 0 436 124 475 353
18 101 22 98 -127 95 l-128 -3 -6 -55 c-12 -110 -68 -168 -180 -184 -147 -21
-259 74 -290 248 -16 96 -7 425 14 492 39 121 114 177 233 177 136 -1 210 -61
223 -180 l6 -58 133 -3 132 -3 0 29 c0 149 -84 294 -207 360 -100 53 -230 74
-369 60z"/>
<path d="M5310 3949 c-176 -16 -321 -106 -377 -236 -27 -61 -24 -195 6 -261
48 -106 180 -193 406 -267 194 -63 245 -103 253 -197 7 -96 -55 -155 -175
-165 -78 -6 -163 13 -207 48 -35 28 -66 90 -66 134 l0 36 -132 -3 -133 -3 3
-55 c8 -129 85 -236 212 -298 96 -47 169 -62 295 -62 173 0 278 34 369 120 93
88 127 213 91 335 -41 143 -152 231 -390 309 -211 69 -285 123 -285 205 0 84
61 145 157 157 140 17 253 -57 253 -166 l0 -31 133 3 132 3 -3 49 c-5 81 -39
154 -98 213 -104 104 -258 150 -444 132z"/>
<path d="M135 3928 c-3 -7 -4 -301 -3 -653 l3 -640 130 0 130 0 3 267 2 268
248 2 247 3 0 100 0 100 -247 3 -248 2 0 175 0 175 295 0 296 0 -3 103 -3 102
-423 3 c-333 2 -424 0 -427 -10z"/>
<path d="M3637 3933 c-4 -3 -7 -205 -7 -447 0 -479 5 -526 55 -626 52 -103
170 -190 301 -224 81 -21 257 -21 337 0 188 48 313 175 347 349 7 41 10 202 8
505 l-3 445 -130 0 -130 0 -5 -470 -5 -471 -25 -49 c-62 -120 -241 -159 -373
-81 -35 20 -52 39 -74 83 l-28 58 -3 468 -3 467 -128 0 c-70 0 -131 -3 -134
-7z"/>
<path d="M1164 2297 c-2 -7 -3 -69 -2 -138 l3 -124 83 -3 c77 -3 82 -2 82 18
0 18 -6 20 -65 20 l-65 0 0 120 c0 101 -2 120 -15 120 -9 0 -18 -6 -21 -13z"/>
<path d="M1865 2297 c-3 -7 -4 -69 -3 -138 l3 -124 83 -3 c77 -3 82 -2 82 18
0 18 -6 20 -60 20 l-60 0 0 45 0 45 55 0 c42 0 55 3 55 15 0 12 -13 15 -55 15
l-55 0 0 40 0 40 61 0 c52 0 60 2 57 18 -3 14 -16 17 -81 20 -58 2 -79 -1 -82
-11z"/>
<path d="M2633 2298 c-16 -21 -96 -258 -90 -264 12 -13 38 7 48 36 10 28 15
30 59 30 46 0 49 -1 60 -35 8 -24 18 -35 31 -35 10 0 19 4 19 9 0 15 -83 245
-93 259 -5 6 -13 12 -17 12 -4 0 -12 -6 -17 -12z m26 -90 c25 -66 24 -68 -8
-68 -35 0 -35 -1 -19 51 13 45 16 47 27 17z"/>
<path d="M3279 2281 c-27 -27 -29 -35 -29 -106 0 -71 2 -79 29 -106 16 -16 40
-29 53 -30 45 -2 73 3 96 17 18 12 22 23 22 69 l0 55 -50 0 c-43 0 -50 -3 -50
-20 0 -16 7 -20 30 -20 25 0 30 -4 30 -25 0 -47 -57 -59 -95 -20 -21 20 -25
34 -25 80 0 46 4 60 25 80 13 14 30 25 37 25 21 0 58 -29 58 -46 0 -8 9 -14
20 -14 28 0 26 35 -5 65 -37 37 -106 35 -146 -4z"/>
<path d="M3950 2209 c0 -138 18 -168 103 -169 85 0 111 46 105 190 -3 69 -5
75 -25 78 -23 3 -23 2 -23 -102 0 -97 -2 -106 -22 -120 -30 -21 -54 -20 -78 4
-17 17 -20 33 -20 120 0 93 -1 100 -20 100 -19 0 -20 -7 -20 -101z"/>
<path d="M4675 2297 c-3 -7 -4 -69 -3 -138 l3 -124 80 0 c68 0 80 3 83 18 3
15 -5 17 -62 17 l-66 0 0 45 0 45 55 0 c42 0 55 3 55 15 0 12 -13 15 -55 15
l-55 0 0 40 0 39 63 3 c47 2 62 7 62 18 0 21 -153 28 -160 7z"/>
<path d="M516 2204 c-30 -30 -13 -74 29 -74 43 0 59 44 27 73 -23 21 -36 21
-56 1z"/>
<path d="M5426 2204 c-30 -30 -13 -74 29 -74 42 0 59 44 29 74 -8 9 -22 16
-29 16 -7 0 -21 -7 -29 -16z"/>
</g>
</svg>
