<?xml version="1.0" standalone="no"?>
<!DOCTYPE svg PUBLIC "-//W3C//DTD SVG 20010904//EN"
 "http://www.w3.org/TR/2001/REC-SVG-20010904/DTD/svg10.dtd">
<svg version="1.0" xmlns="http://www.w3.org/2000/svg"
 width="16.000000pt" height="16.000000pt" viewBox="0 0 16.000000 16.000000"
 preserveAspectRatio="xMidYMid meet">
<metadata>
Created by potrace 1.11, written by Peter Selinger 2001-2013
</metadata>
<g transform="translate(0.000000,16.000000) scale(0.001747,-0.001747)"
fill="#000000" stroke="none">
<path d="M795 4582 l0 -2587 517 0 c339 0 519 3 521 10 2 5 3 488 3 1073 l-1
1062 25 1 c14 0 460 1 993 1 l967 1 0 401 0 401 -986 0 c-542 0 -989 2 -993 5
-9 7 -9 1403 0 1410 4 3 532 5 1173 5 1160 0 1166 0 1167 20 1 27 1 757 0 772
-1 9 -405 11 -1694 11 l-1692 1 0 -2587z"/>
<path d="M4899 7162 c-1 -4 -2 -1167 -3 -2584 -1 -1712 2 -2579 9 -2581 22 -7
3364 -1 3371 6 4 4 8 183 8 397 1 339 -1 391 -14 394 -8 2 -534 4 -1168 4
-634 0 -1156 3 -1160 6 -3 4 -7 975 -8 2159 -1 1184 -3 2164 -3 2179 l-1 26
-515 1 c-283 0 -516 -3 -516 -7z"/>
<path d="M8941 4728 c-77 -21 -123 -80 -124 -156 -2 -162 196 -235 296 -110
99 123 -20 307 -172 266z"/>
<path d="M128 4708 c-143 -37 -166 -240 -35 -309 73 -39 162 -20 211 44 98
128 -20 305 -176 265z"/>
</g>
</svg>
