<?xml version="1.0" standalone="no"?>
<!DOCTYPE svg PUBLIC "-//W3C//DTD SVG 20010904//EN"
 "http://www.w3.org/TR/2001/REC-SVG-20010904/DTD/svg10.dtd">
<svg version="1.0" xmlns="http://www.w3.org/2000/svg"
 width="16.000000pt" height="16.000000pt" viewBox="0 0 16.000000 16.000000"
 preserveAspectRatio="xMidYMid meet">
<metadata>
Created by potrace 1.11, written by Peter Selinger 2001-2013
</metadata>
<g transform="translate(0.000000,16.000000) scale(0.000698,-0.000698)"
fill="#000000" stroke="none">
<path d="M6107 15284 c-1 -1 -63 -4 -137 -7 -74 -4 -146 -9 -160 -11 -14 -2
-43 -7 -65 -10 -237 -31 -481 -109 -685 -218 -227 -122 -454 -312 -614 -513
-26 -33 -53 -67 -59 -75 -14 -17 -70 -103 -111 -168 -131 -209 -249 -554 -281
-817 -4 -27 -9 -61 -13 -75 -9 -38 -12 -1448 -2 -1505 4 -27 10 -73 14 -101 5
-43 23 -142 40 -221 29 -135 99 -329 169 -468 43 -87 140 -251 157 -265 3 -3
17 -21 30 -40 13 -19 29 -40 35 -46 5 -6 24 -28 40 -49 101 -128 278 -289 438
-395 91 -62 285 -161 399 -204 140 -53 366 -104 548 -123 92 -10 472 -10 556
0 335 38 643 140 894 294 254 157 534 443 679 691 133 229 226 482 266 722 9
52 18 106 20 120 28 163 28 1594 0 1640 -2 3 -6 30 -10 60 -24 199 -118 486
-222 680 -306 571 -836 956 -1466 1065 -119 20 -447 48 -460 39z m276 -843
c196 -47 335 -122 469 -253 208 -204 335 -478 383 -830 11 -82 13 -240 11
-763 -2 -600 -5 -695 -21 -775 -2 -14 -7 -41 -10 -60 -9 -56 -44 -179 -72
-255 -127 -341 -364 -589 -650 -678 -200 -63 -393 -75 -605 -37 -468 84 -794
503 -870 1115 -17 140 -17 1290 1 1432 14 115 13 111 35 208 40 170 91 297
178 439 138 224 317 368 549 440 158 49 438 57 602 17z"/>
<path d="M11148 15285 c-2 -1 -61 -5 -133 -9 -136 -6 -147 -8 -285 -32 -285
-50 -557 -168 -790 -343 -109 -81 -284 -260 -375 -383 -192 -256 -321 -557
-379 -878 -23 -126 -25 -147 -34 -240 -9 -106 -9 -1459 0 -1555 64 -680 384
-1234 908 -1573 220 -143 551 -261 802 -288 29 -3 78 -9 108 -14 57 -9 515 -6
560 3 14 3 52 8 85 12 224 24 531 117 696 211 33 18 63 34 66 34 2 0 39 23 81
51 325 217 543 524 636 895 26 105 32 143 51 289 8 70 10 259 2 272 -5 8 -160
11 -507 10 l-500 0 -1 -21 c-9 -264 -43 -419 -126 -576 -69 -129 -164 -222
-291 -286 -237 -120 -589 -140 -849 -49 -384 134 -646 556 -689 1110 -8 108
-8 1333 0 1415 4 36 9 76 11 90 2 14 7 45 10 70 60 436 325 823 635 925 30 9
65 21 76 26 55 20 195 32 323 26 75 -3 147 -8 161 -11 13 -3 42 -8 65 -12 53
-8 201 -57 256 -84 137 -70 261 -202 324 -344 56 -128 94 -316 96 -478 1 -47
2 -48 32 -49 45 0 729 0 871 0 l119 1 -7 153 c-3 83 -8 168 -11 187 -25 154
-43 231 -76 333 -165 506 -575 867 -1159 1020 -124 33 -217 51 -315 62 -155
18 -209 22 -295 24 -52 1 -107 3 -122 5 -15 2 -29 2 -30 1z"/>
<path d="M20948 15285 c-2 -1 -59 -5 -128 -9 -126 -6 -172 -10 -245 -21 -22
-4 -53 -9 -70 -11 -16 -2 -43 -7 -60 -11 -16 -4 -32 -7 -35 -8 -3 -1 -21 -5
-40 -9 -19 -4 -80 -21 -135 -39 -55 -17 -102 -31 -105 -32 -3 -1 -18 -7 -33
-13 -16 -7 -30 -12 -32 -12 -2 0 -41 -18 -87 -39 -265 -125 -506 -323 -643
-530 -143 -217 -206 -428 -208 -696 -1 -118 7 -236 18 -275 2 -8 6 -26 9 -40
39 -204 141 -404 285 -561 208 -228 618 -463 1126 -647 131 -48 351 -121 367
-122 4 0 66 -21 137 -45 551 -189 760 -363 806 -672 12 -82 12 -127 0 -211
-10 -69 -12 -77 -36 -133 -96 -227 -319 -363 -649 -394 -139 -13 -319 -7 -440
17 -469 89 -699 357 -719 840 l-1 26 -500 0 c-343 1 -502 -3 -506 -10 -18 -28
-2 -268 27 -411 63 -313 208 -561 444 -762 150 -127 418 -275 635 -350 116
-40 354 -100 440 -110 30 -4 57 -8 60 -10 30 -18 560 -27 715 -12 109 11 227
29 335 52 14 3 34 7 45 9 98 19 348 112 465 174 156 82 343 227 441 343 94
110 191 284 231 414 76 244 82 539 17 800 -93 372 -323 648 -749 898 -96 56
-293 153 -385 189 -27 11 -63 26 -80 33 -40 18 -278 100 -490 168 -301 97
-585 220 -732 317 -179 118 -271 267 -277 447 -7 227 93 419 282 543 80 53
215 103 314 117 87 13 377 9 448 -5 315 -64 518 -227 601 -484 22 -69 46 -214
44 -265 l-1 -33 509 0 510 0 -6 138 c-3 75 -8 147 -10 158 -3 12 -8 37 -11 55
-12 70 -17 92 -42 172 -76 241 -218 448 -427 624 -221 185 -498 319 -792 383
-83 18 -109 22 -190 35 -52 9 -126 15 -245 21 -63 3 -134 6 -157 8 -24 1 -44
2 -45 1z"/>
<path d="M7 15196 c-3 -10 -1 -5117 2 -5149 1 -9 110 -12 519 -12 l517 0 0
1073 0 1072 45 1 c25 0 471 0 992 0 l948 1 0 401 0 402 -986 0 c-542 0 -989 2
-993 5 -9 7 -9 1403 0 1410 4 3 532 5 1173 5 927 0 1166 2 1167 12 0 7 0 182
0 388 0 206 0 381 0 388 -1 12 -283 14 -1691 14 -1217 0 -1690 -3 -1693 -11z"/>
<path d="M14017 15201 c-7 -14 0 -3551 7 -3611 10 -87 35 -236 48 -285 5 -22
11 -47 13 -55 17 -89 111 -305 185 -425 254 -415 730 -720 1280 -819 185 -33
282 -41 525 -41 193 0 336 7 400 19 11 2 41 6 66 10 314 46 609 156 862 323
139 92 281 217 382 338 153 182 287 461 331 690 2 11 8 43 13 70 33 169 34
230 35 2035 l1 1755 -521 1 -521 1 0 -1731 c0 -952 -3 -1760 -7 -1796 -24
-225 -78 -387 -174 -526 -139 -200 -368 -337 -641 -381 -57 -10 -360 -10 -421
-1 -377 57 -645 273 -759 613 -16 50 -33 113 -37 140 -3 28 -8 53 -10 56 -13
23 -17 387 -18 1906 l-1 1718 -518 1 c-285 1 -519 -2 -520 -5z"/>
<path d="M12775 8710 c-137 -30 -260 -159 -294 -308 -13 -63 -14 -367 0 -432
42 -202 203 -330 414 -330 138 0 240 35 329 113 l38 32 1 193 c0 106 -3 195
-6 198 -5 5 -244 8 -354 5 -21 -1 -23 -6 -23 -56 0 -37 4 -55 13 -56 6 0 59
-2 117 -2 l105 -2 1 -115 c1 -68 -3 -120 -9 -128 -6 -8 -34 -25 -61 -39 -42
-22 -66 -26 -136 -27 -128 -1 -197 39 -255 149 -32 60 -39 108 -39 280 0 161
7 214 34 269 51 101 127 150 235 149 106 -1 179 -43 212 -122 14 -32 17 -46
22 -88 1 -9 22 -13 70 -13 l70 0 -5 55 c-9 131 -110 238 -258 274 -50 12 -167
13 -221 1z"/>
<path d="M15282 8701 c-4 -3 -8 -177 -7 -386 1 -286 5 -390 14 -420 46 -138
136 -217 279 -245 145 -29 306 10 395 95 102 98 107 126 107 586 l0 375 -67
-2 c-38 -1 -70 -2 -73 -3 -3 -1 -5 -162 -6 -358 0 -197 -3 -374 -6 -394 -28
-183 -276 -259 -425 -131 -12 11 -32 39 -45 63 -23 43 -23 51 -28 434 l-5 389
-62 2 c-34 0 -66 -2 -71 -5z"/>
<path d="M4120 8165 l0 -525 329 0 329 0 -1 57 -2 56 -255 1 -255 1 0 465 0
465 -72 3 -73 3 0 -526z"/>
<path d="M6930 8165 l0 -525 325 0 325 0 0 55 c0 50 -2 55 -22 56 -13 0 -126
1 -253 2 l-230 2 -1 175 c0 96 1 180 3 185 2 7 77 10 208 10 113 -1 209 2 213
5 4 3 7 29 8 58 l1 52 -214 0 c-117 0 -214 3 -214 8 -7 44 -2 315 6 322 5 4
111 8 235 8 124 1 231 1 238 1 8 1 12 19 12 56 l0 55 -320 0 -320 0 0 -525z"/>
<path d="M9922 8468 c-44 -123 -110 -306 -147 -408 -116 -320 -145 -402 -145
-412 0 -5 32 -8 72 -6 l71 3 46 132 46 133 197 0 196 0 44 -132 45 -133 75 -3
76 -3 -40 113 c-22 62 -66 187 -98 278 -50 144 -149 423 -212 603 l-21 57 -62
0 -62 0 -81 -222z m218 -212 c39 -115 70 -212 70 -217 0 -5 -67 -9 -150 -9
-82 0 -150 2 -150 3 0 3 127 373 145 426 3 8 8 12 10 9 3 -3 37 -98 75 -212z"/>
<path d="M18159 8683 c-1 -5 -2 -241 -3 -525 l-1 -518 322 0 c251 0 323 3 324
13 5 82 4 97 -11 98 -8 0 -122 1 -252 1 l-238 0 -1 27 c-1 32 0 286 0 321 l1
25 215 0 215 0 0 57 0 58 -217 2 -217 3 1 165 0 165 214 2 c118 1 230 2 249 2
l35 1 0 55 0 55 -317 0 c-175 0 -319 -3 -319 -7z"/>
<path d="M1600 8328 c-50 -14 -85 -42 -106 -85 -56 -118 22 -243 152 -243 85
0 152 59 161 143 7 59 -1 88 -33 127 -46 54 -109 75 -174 58z"/>
<path d="M21251 8332 c-41 -7 -99 -52 -117 -90 -54 -113 26 -242 150 -242 139
0 215 148 135 264 -32 48 -109 79 -168 68z"/>
</g>
</svg>
